<?xml version="1.0" encoding="utf-8"?>
<!-- Generator: Adobe Illustrator 25.2.1, SVG Export Plug-In . SVG Version: 6.00 Build 0)  -->
<svg version="1.1" id="Layer_1" xmlns="http://www.w3.org/2000/svg" xmlns:xlink="http://www.w3.org/1999/xlink" x="0px" y="0px"
	 viewBox="0 0 200 200" style="enable-background:new 0 0 200 200;" xml:space="preserve">
<style type="text/css">
	.st0{fill:#FFFFFF;}
	.st1{display:none;}
	.st2{display:inline;}
</style>
<g>
	<path class="st0" d="M62.08,146.5c-0.44,0.26-0.95,0.39-1.47,0.39h-0.07c-0.8-0.02-1.56-0.36-2.11-0.94
		c-1.37-1.45-2.81-2.15-4.4-2.15c-1.26,0-2.24,0.39-3.09,1.23c-0.84,0.84-1.23,1.82-1.23,3.08c0,0.21,0.01,0.42,0.03,0.61
		c1.27,1.31,2.59,2.57,3.96,3.77c0.13,0.03,0.26,0.03,0.4,0.03c0.77,0,1.43-0.13,2.03-0.4c0.45-0.2,1.22-0.68,2.37-1.82
		c0.56-0.56,1.32-0.87,2.11-0.87h0.04c0.8,0.01,1.57,0.34,2.13,0.92l1.28,1.34v-3.64C63.39,147.55,62.73,147.03,62.08,146.5z
		 M129.23,161.92c-1.25,0-2.36-0.77-2.8-1.94l-0.95-2.5h-4.69l-1,2.54c-0.45,1.15-1.56,1.9-2.79,1.9h-4.26
		c-0.26,0-0.52-0.03-0.77-0.1c-0.25,0.07-0.5,0.1-0.76,0.1h-3.97c-1.31,0-2.46-0.86-2.85-2.08c-0.41,0.03-0.81,0.06-1.22,0.07
		c-0.42,1.21-1.54,2.01-2.82,2.01h-3.61c-1.29,0-2.44-0.83-2.85-2.05l-0.06-0.18c-0.36-0.04-0.71-0.08-1.07-0.12
		c-0.3,1.37-1.52,2.35-2.93,2.35h-4c-0.58,0-1.15-0.17-1.63-0.49c-0.47,0.31-1.04,0.49-1.65,0.49h-4.14c-1.66,0-3-1.35-3-3v-4.18
		c-0.4-0.18-0.8-0.36-1.19-0.55v4.73c0,1.65-1.35,3-3,3h-3.89C77.08,167.08,88.2,170,100,170s22.92-2.92,32.67-8.08H129.23z
		 M145.4,139.23l1.43,2.2v-3.92C146.37,138.09,145.89,138.66,145.4,139.23z M100,30c-38.66,0-70,31.34-70,70
		c0,12.49,3.27,24.22,9.01,34.37h0.84c1.66,0,3,1.34,3,3v1.56c1.07-1.26,2.38-2.33,3.92-3.2c1.25-0.7,2.57-1.21,3.94-1.51
		C43.96,124.51,40,112.72,40,100c0-33.14,26.86-60,60-60s60,26.86,60,60c0,12.82-4.02,24.7-10.87,34.45
		c0.22-0.05,0.46-0.08,0.7-0.08h4.11c0.93,0,1.76,0.42,2.31,1.09c0.55-0.67,1.38-1.09,2.31-1.09h2.43
		c5.74-10.15,9.01-21.88,9.01-34.37C170,61.34,138.66,30,100,30z"/>
	<path class="st0" d="M110,60v75.58c-0.55-0.74-1.43-1.21-2.41-1.21h-3.99c-1.29,0-2.44,0.82-2.85,2.05l-2.18,6.51l-2.16-6.51
		c-0.41-1.22-1.56-2.05-2.85-2.05H90V60c0-5.52,4.48-10,10-10C105.52,50,110,54.48,110,60z"/>
</g>
<g id="Group_Backup" class="st1">
	<path class="st2" d="M100,30c-38.66,0-70,31.34-70,70s31.34,70,70,70s70-31.34,70-70S138.66,30,100,30z M100,160
		c-33.14,0-60-26.86-60-60s26.86-60,60-60s60,26.86,60,60S133.14,160,100,160z"/>
	<path class="st2" d="M110,60v80c0,5.52-4.48,10-10,10c-5.52,0-10-4.48-10-10V60c0-5.52,4.48-10,10-10C105.52,50,110,54.48,110,60z"
		/>
</g>
<g>
	<path class="st0" d="M13.35,137.37h11.91v4.04h-3.93v17.5h-4.16v-17.5h-3.82V137.37z"/>
	<path class="st0" d="M28.09,137.37h11.76v4.01h-7.69v3.9h7.69v3.94h-7.69v5.67h7.69v4.03H28.09V137.37z"/>
	<path class="st0" d="M63.48,141.16l-2.87,2.73c-1.95-2.06-4.15-3.09-6.59-3.09c-2.06,0-3.79,0.7-5.2,2.11
		c-1.41,1.41-2.11,3.14-2.11,5.21c0,1.44,0.31,2.71,0.94,3.83s1.51,1.99,2.65,2.62c1.14,0.64,2.41,0.95,3.81,0.95
		c1.19,0,2.28-0.22,3.26-0.67c0.99-0.44,2.07-1.25,3.25-2.43l2.78,2.9c-1.59,1.55-3.1,2.63-4.51,3.23c-1.42,0.6-3.03,0.9-4.85,0.9
		c-3.35,0-6.09-1.06-8.23-3.19s-3.2-4.85-3.2-8.17c0-2.15,0.49-4.06,1.46-5.73s2.36-3.01,4.17-4.03s3.76-1.52,5.85-1.52
		c1.78,0,3.49,0.38,5.13,1.13C60.87,138.7,62.29,139.77,63.48,141.16z"/>
	<path class="st0" d="M67.06,137.37h4.16v8.13h7.19v-8.13h4.15v21.55h-4.15v-9.45h-7.19v9.45h-4.16V137.37z"/>
	<path class="st0" d="M89.57,137.37h4l5,15.03l5.04-15.03h3.99l3.61,21.55h-3.97l-2.31-13.61l-4.58,13.61h-3.61l-4.54-13.61
		l-2.37,13.61h-4L89.57,137.37z"/>
	<path class="st0" d="M121.05,137.37h4.16l8.29,21.55h-4.26l-1.69-4.44h-8.79l-1.75,4.44h-4.26L121.05,137.37z M123.15,143.08
		l-2.89,7.4h5.77L123.15,143.08z"/>
	<path class="st0" d="M136.68,137.37h3.93l9.22,14.18v-14.18h4.1v21.55h-3.95l-9.21-14.14v14.14h-4.1V137.37z"/>
	<path class="st0" d="M158.56,137.37h4.07v21.55h-4.07V137.37z"/>
	<path class="st0" d="M173.82,137.37h4.16l8.29,21.55h-4.26l-1.69-4.44h-8.79l-1.75,4.44h-4.26L173.82,137.37z M175.93,143.08
		l-2.89,7.4h5.77L175.93,143.08z"/>
</g>
</svg>
